<svg width="24" height="24" viewBox="0 0 24 24" fill="none" xmlns="http://www.w3.org/2000/svg">
<path d="M19.0725 19.0695C15.1636 22.9768 8.83644 22.9768 4.9275 19.0695C2.92536 17.0682 1.94596 14.4215 2.0023 11.7964C2.04563 9.30128 3.02504 6.82781 4.9275 4.93047C8.83644 1.02318 15.1636 1.02318 19.0725 4.93047C20.9706 6.82781 21.9544 9.30561 21.9977 11.7964C22.054 14.4258 21.0746 17.0682 19.0725 19.0695Z" fill="#7FBFE2"/>
<path d="M12.0002 18.9218C15.8249 18.9218 18.9254 15.8226 18.9254 11.9995C18.9254 8.17647 15.8249 5.07727 12.0002 5.07727C8.17557 5.07727 5.07507 8.17647 5.07507 11.9995C5.07507 15.8226 8.17557 18.9218 12.0002 18.9218Z" fill="#B9DFF9"/>
<path opacity="0.3" d="M19.0725 19.0698C15.1635 22.9771 8.83643 22.9771 4.92749 19.0698L19.0725 4.93079C20.9706 6.82812 21.9543 9.30592 21.9977 11.7967C22.054 14.4261 21.0746 17.0685 19.0725 19.0698Z" fill="#D4F2FF"/>
<path d="M13.9506 14.8632H11.7448C11.7838 14.4127 11.9918 14.0055 12.7892 13.1608C14.2279 11.6404 14.787 10.5314 14.787 9.2102C14.787 7.4125 13.8162 6.3772 12.1218 6.3772C10.4273 6.3772 9.45661 7.40817 9.45661 9.2102V9.46145C9.45661 10.0592 9.94197 10.5401 10.5357 10.5401H10.592C11.1901 10.5401 11.6711 10.0549 11.6711 9.46145V9.11491C11.6711 8.53877 11.8964 8.53877 12.0785 8.53877C12.2865 8.53877 12.4858 8.53877 12.4858 9.26652C12.4858 9.99426 12.2648 10.6354 11.0904 11.8786C9.8683 13.1608 9.45227 14.0965 9.45227 15.578V15.9375C9.45227 16.5353 9.93764 17.0161 10.5313 17.0161H13.9506C14.5486 17.0161 15.0297 16.531 15.0297 15.9375C15.0297 15.3441 14.5443 14.8589 13.9506 14.8589V14.8632Z" fill="#6093BA"/>
</svg>
