<svg width="24" height="24" viewBox="0 0 24 24" fill="none" xmlns="http://www.w3.org/2000/svg">
<path d="M19.0725 19.0695C15.1636 22.9768 8.83644 22.9768 4.9275 19.0695C2.92536 17.0682 1.94596 14.4215 2.0023 11.7964C2.04563 9.30128 3.02504 6.82781 4.9275 4.93047C8.83644 1.02318 15.1636 1.02318 19.0725 4.93047C20.9706 6.82781 21.9544 9.30561 21.9977 11.7964C22.054 14.4258 21.0746 17.0682 19.0725 19.0695Z" fill="#D18D52"/>
<path d="M12.0033 18.9216C15.8279 18.9216 18.9284 15.8224 18.9284 11.9994C18.9284 8.17634 15.8279 5.07715 12.0033 5.07715C8.17862 5.07715 5.07812 8.17634 5.07812 11.9994C5.07812 15.8224 8.17862 18.9216 12.0033 18.9216Z" fill="#F5B680"/>
<path opacity="0.3" d="M19.0725 19.0698C15.1635 22.9771 8.83643 22.9771 4.92749 19.0698L19.0725 4.93079C20.9706 6.82812 21.9543 9.30592 21.9977 11.7967C22.054 14.4261 21.0746 17.0685 19.0725 19.0698Z" fill="#FFE1CA"/>
<path d="M13.6721 11.7265C14.1532 11.3193 14.3872 10.6782 14.3872 9.78585V9.44364C14.3872 7.69792 13.4468 6.69727 11.8043 6.69727C10.1619 6.69727 9.2215 7.63294 9.2215 9.07976V9.25304C9.2215 9.85516 9.7112 10.3447 10.3136 10.3447C10.916 10.3447 11.4057 9.85516 11.4057 9.25304V8.98447C11.436 8.93248 11.553 8.82419 11.7523 8.82419C11.8824 8.82419 12.125 8.82419 12.125 9.40465V10.1021C12.125 10.6349 12.0124 10.7302 11.9777 10.7345H11.735C11.15 10.7345 10.6733 11.211 10.6733 11.7958C10.6733 12.3806 11.15 12.8571 11.735 12.8571H11.9344C11.9864 12.8571 12.164 13.0564 12.164 13.6975V14.4772C12.164 15.179 11.969 15.179 11.761 15.179C11.5833 15.179 11.358 15.179 11.358 14.6115V14.4729C11.358 13.8708 10.8683 13.3813 10.2659 13.3813C9.66353 13.3813 9.17383 13.8708 9.17383 14.4729V14.5422C9.17383 16.2966 10.1316 17.3016 11.7957 17.3016C13.4598 17.3016 14.4175 16.3009 14.4175 14.5552V13.7061C14.4175 12.8051 14.1618 12.138 13.6591 11.7222L13.6721 11.7265Z" fill="#C66E04"/>
</svg>
