<svg width="24" height="24" viewBox="0 0 24 24" fill="none" xmlns="http://www.w3.org/2000/svg">
<path d="M19.0725 19.0695C15.1636 22.9768 8.83644 22.9768 4.9275 19.0695C2.92536 17.0682 1.94596 14.4215 2.0023 11.7964C2.04563 9.30128 3.02504 6.82781 4.9275 4.93047C8.83644 1.02318 15.1636 1.02318 19.0725 4.93047C20.9706 6.82781 21.9544 9.30561 21.9977 11.7964C22.054 14.4258 21.0746 17.0682 19.0725 19.0695Z" fill="#FFC006"/>
<path d="M12.0024 18.9174C15.8271 18.9174 18.9276 15.8182 18.9276 11.9951C18.9276 8.17207 15.8271 5.07288 12.0024 5.07288C8.17777 5.07288 5.07727 8.17207 5.07727 11.9951C5.07727 15.8182 8.17777 18.9174 12.0024 18.9174Z" fill="#FFE04A"/>
<path opacity="0.3" d="M19.0703 19.0698C15.1614 22.9771 8.83429 22.9771 4.92535 19.0698L19.0703 4.93079C20.9685 6.82812 21.9522 9.30592 21.9955 11.7967C22.0519 14.4261 21.0725 17.0685 19.0703 19.0698Z" fill="#FFF5CC"/>
<path d="M13.7337 7.62425C13.725 7.58959 13.712 7.55494 13.7033 7.52028C13.6903 7.4813 13.6817 7.43798 13.6643 7.39899C13.647 7.36001 13.6253 7.32535 13.6037 7.28636C13.5863 7.25604 13.5733 7.22139 13.5517 7.1954C13.465 7.06544 13.3523 6.95281 13.2223 6.86618C13.192 6.84452 13.1616 6.83152 13.1313 6.8142C13.0923 6.79254 13.0576 6.77088 13.0186 6.75355C12.9796 6.73622 12.9363 6.72756 12.8973 6.71456C12.8626 6.7059 12.8323 6.6929 12.7976 6.68424C12.6416 6.65392 12.4856 6.65392 12.3296 6.68424C12.2949 6.6929 12.2602 6.7059 12.2256 6.71456C12.1866 6.72756 12.1432 6.73622 12.1042 6.75355C12.0652 6.77088 12.0262 6.79254 11.9915 6.8142C11.9612 6.83152 11.9309 6.84452 11.9005 6.86618C11.8355 6.9095 11.7749 6.96148 11.7185 7.01346L9.66438 9.06674C9.19635 9.53458 9.19635 10.2883 9.66438 10.7518C10.1324 11.2197 10.8865 11.2197 11.3502 10.7518L11.3675 10.7345V16.1319C11.3675 16.7904 11.9005 17.3232 12.5592 17.3232C13.218 17.3232 13.751 16.7904 13.751 16.1319V7.85383C13.751 7.77586 13.7423 7.69789 13.7293 7.61991L13.7337 7.62425Z" fill="#FF9E03"/>
</svg>
